<mxfile host="app.diagrams.net" agent="Mozilla/5.0 (Windows NT 10.0; Win64; x64) AppleWebKit/537.36 (KHTML, like Gecko) Chrome/129.0.0.0 Safari/537.36 Edg/129.0.0.0" version="26.2.14">
  <diagram id="C5RBs43oDa-KdzZeNtuy" name="Page-1">
    <mxGraphModel dx="2245" dy="762" grid="1" gridSize="10" guides="1" tooltips="1" connect="1" arrows="1" fold="1" page="1" pageScale="1" pageWidth="827" pageHeight="1169" math="1" shadow="0" adaptiveColors="auto">
      <root>
        <mxCell id="WIyWlLk6GJQsqaUBKTNV-0" />
        <mxCell id="WIyWlLk6GJQsqaUBKTNV-1" parent="WIyWlLk6GJQsqaUBKTNV-0" />
        <mxCell id="KGAYr9diKrxtLoyavETy-0" value="人源菌群-C57BL/6小鼠模型构建与验证" style="whiteSpace=wrap;strokeWidth=2;rounded=1;glass=0;fontSize=20;" parent="WIyWlLk6GJQsqaUBKTNV-1" vertex="1">
          <mxGeometry y="392.5625" width="260" height="78" as="geometry" />
        </mxCell>
        <mxCell id="KGAYr9diKrxtLoyavETy-1" value="动物分组" style="whiteSpace=wrap;strokeWidth=2;rounded=1;glass=0;fontSize=20;" parent="WIyWlLk6GJQsqaUBKTNV-1" vertex="1">
          <mxGeometry x="310" y="263.5625" width="124" height="54" as="geometry" />
        </mxCell>
        <mxCell id="KGAYr9diKrxtLoyavETy-2" value="菌群定植验证" style="whiteSpace=wrap;strokeWidth=2;rounded=1;glass=0;fontSize=20;" parent="WIyWlLk6GJQsqaUBKTNV-1" vertex="1">
          <mxGeometry x="310" y="545.5625" width="156" height="54" as="geometry" />
        </mxCell>
        <mxCell id="KGAYr9diKrxtLoyavETy-3" value="实验组" style="whiteSpace=wrap;strokeWidth=2;rounded=1;glass=0;fontSize=20;" parent="WIyWlLk6GJQsqaUBKTNV-1" vertex="1">
          <mxGeometry x="484" y="169.5625" width="108" height="54" as="geometry" />
        </mxCell>
        <mxCell id="KGAYr9diKrxtLoyavETy-4" value="对照组" style="whiteSpace=wrap;strokeWidth=2;rounded=1;glass=0;fontSize=20;" parent="WIyWlLk6GJQsqaUBKTNV-1" vertex="1">
          <mxGeometry x="484" y="263.5625" width="108" height="54" as="geometry" />
        </mxCell>
        <mxCell id="KGAYr9diKrxtLoyavETy-5" value="空白组" style="whiteSpace=wrap;strokeWidth=2;rounded=1;glass=0;fontSize=20;" parent="WIyWlLk6GJQsqaUBKTNV-1" vertex="1">
          <mxGeometry x="484" y="357.5625" width="108" height="54" as="geometry" />
        </mxCell>
        <mxCell id="KGAYr9diKrxtLoyavETy-6" value="动态监测" style="whiteSpace=wrap;strokeWidth=2;rounded=1;glass=0;fontSize=20;" parent="WIyWlLk6GJQsqaUBKTNV-1" vertex="1">
          <mxGeometry x="516" y="451.5625" width="124" height="54" as="geometry" />
        </mxCell>
        <mxCell id="KGAYr9diKrxtLoyavETy-7" value="功能验证" style="whiteSpace=wrap;strokeWidth=2;rounded=1;glass=0;fontSize=20;" parent="WIyWlLk6GJQsqaUBKTNV-1" vertex="1">
          <mxGeometry x="516" y="639.5625" width="124" height="54" as="geometry" />
        </mxCell>
        <mxCell id="KGAYr9diKrxtLoyavETy-8" value="qPCR定量" style="whiteSpace=wrap;strokeWidth=2;rounded=1;glass=0;fontSize=20;" parent="WIyWlLk6GJQsqaUBKTNV-1" vertex="1">
          <mxGeometry x="690" y="404.5625" width="129" height="54" as="geometry" />
        </mxCell>
        <mxCell id="KGAYr9diKrxtLoyavETy-9" value="16S测序" style="whiteSpace=wrap;strokeWidth=2;rounded=1;glass=0;fontSize=20;" parent="WIyWlLk6GJQsqaUBKTNV-1" vertex="1">
          <mxGeometry x="690" y="498.5625" width="116" height="54" as="geometry" />
        </mxCell>
        <mxCell id="KGAYr9diKrxtLoyavETy-10" value="宏基因组学" style="whiteSpace=wrap;strokeWidth=2;rounded=1;glass=0;fontSize=20;" parent="WIyWlLk6GJQsqaUBKTNV-1" vertex="1">
          <mxGeometry x="690" y="592.5625" width="140" height="54" as="geometry" />
        </mxCell>
        <mxCell id="KGAYr9diKrxtLoyavETy-11" value="代谢产物检测" style="whiteSpace=wrap;strokeWidth=2;rounded=1;glass=0;fontSize=20;" parent="WIyWlLk6GJQsqaUBKTNV-1" vertex="1">
          <mxGeometry x="690" y="686.5625" width="156" height="54" as="geometry" />
        </mxCell>
        <mxCell id="KGAYr9diKrxtLoyavETy-12" value="" style="startArrow=none;endArrow=diamondThin;exitX=0;exitY=0.8;entryX=0.5;entryY=0;rounded=0;strokeWidth=1;endFill=1;orthogonal=1;edgeStyle=orthogonalEdgeStyle;" parent="WIyWlLk6GJQsqaUBKTNV-1" source="KGAYr9diKrxtLoyavETy-0" target="KGAYr9diKrxtLoyavETy-1" edge="1">
          <mxGeometry relative="1" as="geometry" />
        </mxCell>
        <mxCell id="KGAYr9diKrxtLoyavETy-13" value="" style="startArrow=none;endArrow=diamondThin;exitX=0.88;exitY=1;entryX=0.5;entryY=0;rounded=0;strokeWidth=1;endFill=1;orthogonal=1;edgeStyle=orthogonalEdgeStyle;" parent="WIyWlLk6GJQsqaUBKTNV-1" source="KGAYr9diKrxtLoyavETy-0" target="KGAYr9diKrxtLoyavETy-2" edge="1">
          <mxGeometry relative="1" as="geometry" />
        </mxCell>
        <mxCell id="KGAYr9diKrxtLoyavETy-14" value="" style="startArrow=none;endArrow=diamondThin;exitX=0;exitY=0.88;entryX=0.5;entryY=0;rounded=0;strokeWidth=1;endFill=1;orthogonal=1;edgeStyle=orthogonalEdgeStyle;" parent="WIyWlLk6GJQsqaUBKTNV-1" source="KGAYr9diKrxtLoyavETy-1" target="KGAYr9diKrxtLoyavETy-3" edge="1">
          <mxGeometry relative="1" as="geometry" />
        </mxCell>
        <mxCell id="KGAYr9diKrxtLoyavETy-15" value="" style="startArrow=none;endArrow=diamondThin;exitX=0.5;exitY=1;entryX=0.5;entryY=0;rounded=0;strokeWidth=1;endFill=1;orthogonal=1;edgeStyle=orthogonalEdgeStyle;" parent="WIyWlLk6GJQsqaUBKTNV-1" source="KGAYr9diKrxtLoyavETy-1" target="KGAYr9diKrxtLoyavETy-4" edge="1">
          <mxGeometry relative="1" as="geometry" />
        </mxCell>
        <mxCell id="KGAYr9diKrxtLoyavETy-16" value="" style="startArrow=none;endArrow=diamondThin;exitX=1;exitY=0.88;entryX=0.5;entryY=0;rounded=0;strokeWidth=1;endFill=1;orthogonal=1;edgeStyle=orthogonalEdgeStyle;" parent="WIyWlLk6GJQsqaUBKTNV-1" source="KGAYr9diKrxtLoyavETy-1" target="KGAYr9diKrxtLoyavETy-5" edge="1">
          <mxGeometry relative="1" as="geometry" />
        </mxCell>
        <mxCell id="KGAYr9diKrxtLoyavETy-17" value="" style="startArrow=none;endArrow=diamondThin;exitX=0;exitY=0.9;entryX=0.5;entryY=0;rounded=0;strokeWidth=1;endFill=1;orthogonal=1;edgeStyle=orthogonalEdgeStyle;" parent="WIyWlLk6GJQsqaUBKTNV-1" source="KGAYr9diKrxtLoyavETy-2" target="KGAYr9diKrxtLoyavETy-6" edge="1">
          <mxGeometry relative="1" as="geometry" />
        </mxCell>
        <mxCell id="KGAYr9diKrxtLoyavETy-18" value="" style="startArrow=none;endArrow=diamondThin;exitX=1;exitY=0.93;entryX=0.5;entryY=0;rounded=0;strokeWidth=1;endFill=1;orthogonal=1;edgeStyle=orthogonalEdgeStyle;" parent="WIyWlLk6GJQsqaUBKTNV-1" source="KGAYr9diKrxtLoyavETy-2" target="KGAYr9diKrxtLoyavETy-7" edge="1">
          <mxGeometry relative="1" as="geometry" />
        </mxCell>
        <mxCell id="KGAYr9diKrxtLoyavETy-19" value="" style="startArrow=none;endArrow=diamondThin;exitX=0.14;exitY=1;entryX=0.5;entryY=0;rounded=0;strokeWidth=1;endFill=1;orthogonal=1;edgeStyle=orthogonalEdgeStyle;" parent="WIyWlLk6GJQsqaUBKTNV-1" source="KGAYr9diKrxtLoyavETy-6" target="KGAYr9diKrxtLoyavETy-8" edge="1">
          <mxGeometry relative="1" as="geometry" />
        </mxCell>
        <mxCell id="KGAYr9diKrxtLoyavETy-20" value="" style="startArrow=none;endArrow=diamondThin;exitX=0.86;exitY=1;entryX=0.5;entryY=0;rounded=0;strokeWidth=1;endFill=1;orthogonal=1;edgeStyle=orthogonalEdgeStyle;" parent="WIyWlLk6GJQsqaUBKTNV-1" source="KGAYr9diKrxtLoyavETy-6" target="KGAYr9diKrxtLoyavETy-9" edge="1">
          <mxGeometry relative="1" as="geometry" />
        </mxCell>
        <mxCell id="KGAYr9diKrxtLoyavETy-21" value="" style="startArrow=none;endArrow=diamondThin;exitX=0.08;exitY=1;entryX=0.5;entryY=0;rounded=0;strokeWidth=1;endFill=1;orthogonal=1;edgeStyle=orthogonalEdgeStyle;" parent="WIyWlLk6GJQsqaUBKTNV-1" source="KGAYr9diKrxtLoyavETy-7" target="KGAYr9diKrxtLoyavETy-10" edge="1">
          <mxGeometry relative="1" as="geometry" />
        </mxCell>
        <mxCell id="KGAYr9diKrxtLoyavETy-22" value="" style="startArrow=none;endArrow=diamondThin;exitX=0.91;exitY=1;entryX=0.5;entryY=0;rounded=0;strokeWidth=1;endFill=1;orthogonal=1;edgeStyle=orthogonalEdgeStyle;" parent="WIyWlLk6GJQsqaUBKTNV-1" source="KGAYr9diKrxtLoyavETy-7" target="KGAYr9diKrxtLoyavETy-11" edge="1">
          <mxGeometry relative="1" as="geometry" />
        </mxCell>
      </root>
    </mxGraphModel>
  </diagram>
</mxfile>
